<?xml version="1.0" encoding="UTF-8" standalone="no"?>
<!-- Created with Inkscape (http://www.inkscape.org/) -->

<svg
   xmlns:dc="http://purl.org/dc/elements/1.1/"
   xmlns:cc="http://creativecommons.org/ns#"
   xmlns:rdf="http://www.w3.org/1999/02/22-rdf-syntax-ns#"
   xmlns:svg="http://www.w3.org/2000/svg"
   xmlns="http://www.w3.org/2000/svg"
   xmlns:sodipodi="http://sodipodi.sourceforge.net/DTD/sodipodi-0.dtd"
   xmlns:inkscape="http://www.inkscape.org/namespaces/inkscape"
   width="368"
   height="368"
   viewBox="0 0 97.366662 97.366669"
   version="1.1"
   id="svg3195"
   inkscape:version="0.92.4 (unknown)"
   sodipodi:docname="loue.svg">
  <defs
     id="defs3189">
    <inkscape:path-effect
       effect="skeletal"
       id="path-effect821"
       is_visible="true"
       pattern="m -127.22201,188.95003 a 2.6036131,2.6036131 0 0 1 -2.60361,2.60361 2.6036131,2.6036131 0 0 1 -2.60362,-2.60361 2.6036131,2.6036131 0 0 1 2.60362,-2.60362 2.6036131,2.6036131 0 0 1 2.60361,2.60362 z"
       copytype="repeated_stretched"
       prop_scale="1"
       scale_y_rel="false"
       spacing="0"
       normal_offset="0"
       tang_offset="0"
       prop_units="false"
       vertical_pattern="false"
       fuse_tolerance="0" />
    <clipPath
       clipPathUnits="userSpaceOnUse"
       id="clipPath1403">
      <rect
         style="opacity:1;fill:#ffffff;fill-opacity:1;stroke:none;stroke-width:1.15093744;stroke-linecap:round;stroke-linejoin:miter;stroke-miterlimit:4;stroke-dasharray:none;stroke-dashoffset:0;stroke-opacity:1;paint-order:normal"
         id="rect1405"
         width="372.53333"
         height="69.849998"
         x="-1194.8583"
         y="437.22913" />
    </clipPath>
  </defs>
  <sodipodi:namedview
     id="base"
     pagecolor="#dfdfdf"
     bordercolor="#666666"
     borderopacity="1.0"
     inkscape:pageopacity="0"
     inkscape:pageshadow="2"
     inkscape:zoom="0.35355339"
     inkscape:cx="-844.90407"
     inkscape:cy="18.047024"
     inkscape:document-units="px"
     inkscape:current-layer="layer1"
     showgrid="false"
     units="px"
     inkscape:window-width="1366"
     inkscape:window-height="741"
     inkscape:window-x="0"
     inkscape:window-y="0"
     inkscape:window-maximized="1"
     inkscape:object-paths="false"
     inkscape:snap-intersection-paths="true" />
  <metadata
     id="metadata3192">
    <rdf:RDF>
      <cc:Work
         rdf:about="">
        <dc:format>image/svg+xml</dc:format>
        <dc:type
           rdf:resource="http://purl.org/dc/dcmitype/StillImage" />
        <dc:title></dc:title>
      </cc:Work>
    </rdf:RDF>
  </metadata>
  <g
     inkscape:label="Layer 1"
     inkscape:groupmode="layer"
     id="layer1"
     transform="translate(390.77237,-395.06393)">
    <path
       style="fill:none;stroke:#000000;stroke-width:0.26458332px;stroke-linecap:butt;stroke-linejoin:miter;stroke-opacity:1"
       d="m -362.849,282.56176 c -0.58875,5.89381 -11.51927,38.65946 -11.3612,38.8175 2.4707,2.47071 14.70615,-5.62925 16.80511,-6.15399 19.2645,-4.81612 45.92214,-14.67298 65.80042,-4.73384"
       id="path1187"
       inkscape:connector-curvature="0" />
    <path
       style="fill:none;stroke:#000000;stroke-width:0.26458332px;stroke-linecap:butt;stroke-linejoin:miter;stroke-opacity:1"
       d="m -342.96686,294.86975 c -2.35267,2.89475 -2.83977,5.56148 -4.97054,8.7576 -23.4162,35.1243 43.00458,3.50145 13.96484,-15.85837"
       id="path1191"
       inkscape:connector-curvature="0" />
    <path
       style="fill:none;stroke:#000000;stroke-width:0.26458332px;stroke-linecap:butt;stroke-linejoin:miter;stroke-opacity:1"
       d="m -317.40411,290.1359 c -28.59511,54.05706 10.55703,35.69058 17.7519,3.31369"
       id="path1195"
       inkscape:connector-curvature="0" />
    <path
       style="fill:none;stroke:#000000;stroke-width:0.26458332px;stroke-linecap:butt;stroke-linejoin:miter;stroke-opacity:1"
       d="m -290.42122,292.73952 c -12.84419,20.80427 -24.4204,52.32951 12.0713,34.08366"
       id="path1197"
       inkscape:connector-curvature="0" />
    <path
       style="fill:none;stroke:#000000;stroke-width:0.26458332px;stroke-linecap:butt;stroke-linejoin:miter;stroke-opacity:1"
       d="m -290.42122,292.73952 c 7.24967,-0.44598 16.67307,2.62289 22.01239,6.62738"
       id="path1199"
       inkscape:connector-curvature="0" />
    <path
       style="fill:none;stroke:#000000;stroke-width:0.26458332px;stroke-linecap:butt;stroke-linejoin:miter;stroke-opacity:1"
       d="m -296.10182,308.3612 c 7.18844,1.90662 12.85039,5.33912 18.69869,8.9943"
       id="path1201"
       inkscape:connector-curvature="0" />
    <path
       style="fill:none;stroke:#000000;stroke-width:0.26458332px;stroke-linecap:butt;stroke-linejoin:miter;stroke-opacity:1"
       d="m -344.6078,298.33891 c 3.20892,-8.77697 12.88978,-9.76391 21.25554,-12.5525"
       id="path1213"
       inkscape:connector-curvature="0" />
    <path
       inkscape:connector-curvature="0"
       id="path1296"
       d="m -242.53814,359.36413 v 12.62145 h 1.3343 v -1.15393 -11.46752 z"
       style="font-style:normal;font-variant:normal;font-weight:normal;font-stretch:normal;font-size:18.03020859px;line-height:1.25;font-family:Montserrat;-inkscape-font-specification:Montserrat;font-variant-ligatures:normal;font-variant-caps:normal;font-variant-numeric:normal;font-feature-settings:normal;text-align:start;letter-spacing:-0.3380664px;word-spacing:0px;writing-mode:lr-tb;text-anchor:start;fill:#000000;fill-opacity:1;stroke:none;stroke-width:0.3380664" />
    <path
       id="path1298"
       style="font-style:normal;font-variant:normal;font-weight:normal;font-stretch:normal;font-size:18.03020859px;line-height:1.25;font-family:Montserrat;-inkscape-font-specification:Montserrat;font-variant-ligatures:normal;font-variant-caps:normal;font-variant-numeric:normal;font-feature-settings:normal;text-align:start;letter-spacing:-0.3380664px;word-spacing:0px;writing-mode:lr-tb;text-anchor:start;fill:#000000;fill-opacity:1;stroke:none;stroke-width:0.3380664"
       d="m -228.47841,372.09355 q -1.87514,0 -3.40771,-0.82939 -1.51453,-0.84742 -2.37998,-2.30787 -0.84742,-1.46044 -0.84742,-3.28149 0,-1.82106 0.84742,-3.2815 0.86545,-1.46045 2.37998,-2.28984 1.53257,-0.84742 3.40771,-0.84742 1.87515,0 3.37165,0.82939 1.51454,0.82939 2.37999,2.30787 0.86545,1.46044 0.86545,3.2815 0,1.82105 -0.86545,3.29952 -0.86545,1.46045 -2.37999,2.28984 -1.4965,0.82939 -3.37165,0.82939 z m 0,-1.18999 q 1.49651,0 2.70453,-0.66712 1.20803,-0.68515 1.89318,-1.87514 0.68514,-1.20803 0.68514,-2.6865 0,-1.47848 -0.68514,-2.66848 -0.68515,-1.20802 -1.89318,-1.87514 -1.20802,-0.68515 -2.70453,-0.68515 -1.4965,0 -2.72256,0.68515 -1.20802,0.66712 -1.9112,1.87514 -0.68515,1.19 -0.68515,2.66848 0,1.47847 0.68515,2.6865 0.70318,1.18999 1.9112,1.87514 1.22606,0.66712 2.72256,0.66712 z"
       inkscape:connector-curvature="0" />
    <path
       id="path1300"
       style="font-style:normal;font-variant:normal;font-weight:normal;font-stretch:normal;font-size:18.03020859px;line-height:1.25;font-family:Montserrat;-inkscape-font-specification:Montserrat;font-variant-ligatures:normal;font-variant-caps:normal;font-variant-numeric:normal;font-feature-settings:normal;text-align:start;letter-spacing:-0.3380664px;word-spacing:0px;writing-mode:lr-tb;text-anchor:start;fill:#000000;fill-opacity:1;stroke:none;stroke-width:0.3380664"
       d="m -214.10664,372.09355 q -2.45211,0 -3.8224,-1.40636 -1.3703,-1.40635 -1.3703,-4.09285 v -7.23012 h 1.33424 v 7.17603 q 0,2.19968 0.99166,3.28149 0.99166,1.08182 2.8668,1.08182 1.89317,0 2.88483,-1.08182 0.99167,-1.08181 0.99167,-3.28149 v -7.17603 h 1.29817 v 7.23012 q 0,2.6865 -1.3703,4.09285 -1.35226,1.40636 -3.80437,1.40636 z"
       inkscape:connector-curvature="0" />
    <path
       id="path1302"
       style="font-style:normal;font-variant:normal;font-weight:normal;font-stretch:normal;font-size:18.03020859px;line-height:1.25;font-family:Montserrat;-inkscape-font-specification:Montserrat;font-variant-ligatures:normal;font-variant-caps:normal;font-variant-numeric:normal;font-feature-settings:normal;text-align:start;letter-spacing:-0.3380664px;word-spacing:0px;writing-mode:lr-tb;text-anchor:start;fill:#000000;fill-opacity:1;stroke:none;stroke-width:0.3380664"
       d="m -196.30688,370.83143 v 1.15394 h -8.92495 v -12.62115 h 8.6545 v 1.15394 h -7.32027 v 4.48952 h 6.52694 v 1.1359 h -6.52694 v 4.68785 z"
       inkscape:connector-curvature="0" />
    <path
       sodipodi:nodetypes="ccccc"
       inkscape:connector-curvature="0"
       id="path1304"
       d="m -197.37097,364.99519 c -23.18534,0.0263 -36.66549,1.38703 -44.42272,6.00211 l 0.58985,0.98828 c 7.33195,-4.36207 20.69336,-5.8137 43.83287,-5.84 z"
       style="color:#000000;font-style:normal;font-variant:normal;font-weight:normal;font-stretch:normal;font-size:medium;line-height:normal;font-family:sans-serif;font-variant-ligatures:normal;font-variant-position:normal;font-variant-caps:normal;font-variant-numeric:normal;font-variant-alternates:normal;font-feature-settings:normal;text-indent:0;text-align:start;text-decoration:none;text-decoration-line:none;text-decoration-style:solid;text-decoration-color:#000000;letter-spacing:normal;word-spacing:normal;text-transform:none;writing-mode:lr-tb;direction:ltr;text-orientation:mixed;dominant-baseline:auto;baseline-shift:baseline;text-anchor:start;white-space:normal;shape-padding:0;clip-rule:nonzero;display:inline;overflow:visible;visibility:visible;opacity:0.69300022;isolation:auto;mix-blend-mode:normal;color-interpolation:sRGB;color-interpolation-filters:linearRGB;solid-color:#000000;solid-opacity:1;vector-effect:none;fill:#ffaaaa;fill-opacity:1;fill-rule:nonzero;stroke:none;stroke-width:1.15093744;stroke-linecap:butt;stroke-linejoin:miter;stroke-miterlimit:4;stroke-dasharray:none;stroke-dashoffset:0;stroke-opacity:1;color-rendering:auto;image-rendering:auto;shape-rendering:auto;text-rendering:auto;enable-background:accumulate" />
    <rect
       style="opacity:1;fill:#ffffff;fill-opacity:1;stroke:none;stroke-width:4.47002316;stroke-linecap:round;stroke-linejoin:miter;stroke-miterlimit:4;stroke-dasharray:none;stroke-dashoffset:0;stroke-opacity:1;paint-order:normal"
       id="rect1316"
       width="97.366669"
       height="97.366669"
       x="-390.77237"
       y="395.06393" />
    <g
       id="g1314"
       transform="matrix(1.3423291,0,0,1.3423291,74.267414,-79.42805)">
      <path
         id="path1244"
         transform="matrix(0.26458333,0,0,0.26458333,0,161.53331)"
         d="m -1259.6797,838.70703 v 47.70313 h 5.043 c 27.7113,-16.48657 78.2115,-21.97287 165.6679,-22.07227 v -4.34766 c -85.4597,0.0969 -136.0216,4.99678 -165.6679,21.41797 v -42.70117 z"
         style="font-style:normal;font-variant:normal;font-weight:normal;font-stretch:normal;font-size:18.03020859px;line-height:1.25;font-family:Montserrat;-inkscape-font-specification:Montserrat;font-variant-ligatures:normal;font-variant-caps:normal;font-variant-numeric:normal;font-feature-settings:normal;text-align:start;letter-spacing:-0.3380664px;word-spacing:0px;writing-mode:lr-tb;text-anchor:start;fill:#000000;fill-opacity:1;stroke:none;stroke-width:1.2777313"
         inkscape:connector-curvature="0" />
      <path
         id="path1246"
         style="font-style:normal;font-variant:normal;font-weight:normal;font-stretch:normal;font-size:18.03020859px;line-height:1.25;font-family:Montserrat;-inkscape-font-specification:Montserrat;font-variant-ligatures:normal;font-variant-caps:normal;font-variant-numeric:normal;font-feature-settings:normal;text-align:start;letter-spacing:-0.3380664px;word-spacing:0px;writing-mode:lr-tb;text-anchor:start;fill:#000000;fill-opacity:1;stroke:none;stroke-width:0.3380664"
         d="m -319.23049,396.17063 q -1.87514,0 -3.40771,-0.82939 -1.51453,-0.84742 -2.37998,-2.30787 -0.84742,-1.46044 -0.84742,-3.28149 0,-1.82106 0.84742,-3.2815 0.86545,-1.46045 2.37998,-2.28984 1.53257,-0.84742 3.40771,-0.84742 1.87515,0 3.37165,0.82939 1.51454,0.82939 2.37999,2.30787 0.86545,1.46044 0.86545,3.2815 0,1.82105 -0.86545,3.29952 -0.86545,1.46045 -2.37999,2.28984 -1.4965,0.82939 -3.37165,0.82939 z m 0,-1.18999 q 1.49651,0 2.70453,-0.66712 1.20803,-0.68515 1.89318,-1.87514 0.68514,-1.20803 0.68514,-2.6865 0,-1.47848 -0.68514,-2.66848 -0.68515,-1.20802 -1.89318,-1.87514 -1.20802,-0.68515 -2.70453,-0.68515 -1.4965,0 -2.72256,0.68515 -1.20802,0.66712 -1.9112,1.87514 -0.68515,1.19 -0.68515,2.66848 0,1.47847 0.68515,2.6865 0.70318,1.18999 1.9112,1.87514 1.22606,0.66712 2.72256,0.66712 z"
         inkscape:connector-curvature="0" />
      <path
         id="path1248"
         style="font-style:normal;font-variant:normal;font-weight:normal;font-stretch:normal;font-size:18.03020859px;line-height:1.25;font-family:Montserrat;-inkscape-font-specification:Montserrat;font-variant-ligatures:normal;font-variant-caps:normal;font-variant-numeric:normal;font-feature-settings:normal;text-align:start;letter-spacing:-0.3380664px;word-spacing:0px;writing-mode:lr-tb;text-anchor:start;fill:#000000;fill-opacity:1;stroke:none;stroke-width:0.3380664"
         d="m -304.85872,396.17063 q -2.45211,0 -3.8224,-1.40636 -1.3703,-1.40635 -1.3703,-4.09285 v -7.23012 h 1.33424 v 7.17603 q 0,2.19968 0.99166,3.28149 0.99166,1.08182 2.8668,1.08182 1.89317,0 2.88483,-1.08182 0.99167,-1.08181 0.99167,-3.28149 v -7.17603 h 1.29817 v 7.23012 q 0,2.6865 -1.3703,4.09285 -1.35226,1.40636 -3.80437,1.40636 z"
         inkscape:connector-curvature="0" />
      <path
         transform="matrix(0.26458333,0,0,0.26458333,0,161.53331)"
         id="path1250"
         d="m -1118.6797,838.70703 v 47.70313 h 33.7324 v -4.36133 h -28.6894 v -17.71875 -4.29297 -1.15625 -15.8125 h 27.6679 v -4.36133 z"
         style="font-style:normal;font-variant:normal;font-weight:normal;font-stretch:normal;font-size:18.03020859px;line-height:1.25;font-family:Montserrat;-inkscape-font-specification:Montserrat;font-variant-ligatures:normal;font-variant-caps:normal;font-variant-numeric:normal;font-feature-settings:normal;text-align:start;letter-spacing:-0.3380664px;word-spacing:0px;writing-mode:lr-tb;text-anchor:start;fill:#000000;fill-opacity:1;stroke:none;stroke-width:1.2777313"
         inkscape:connector-curvature="0" />
    </g>
  </g>
</svg>
